<svg id="eRVZChmYdWf1" xmlns="http://www.w3.org/2000/svg" xmlns:xlink="http://www.w3.org/1999/xlink" viewBox="0 0 300 200" shape-rendering="geometricPrecision" text-rendering="geometricPrecision"><line x1="-39.929023" y1="0" x2="39.929023" y2="0" transform="matrix(.838249 0 0 1 59.330683 100.207908)" fill="none" stroke="#c5d2d7" stroke-width="20" stroke-linecap="square"/><line x1="-39.929023" y1="0" x2="39.929023" y2="0" transform="matrix(.838249 0 0 1 240.669317 100.207908)" fill="none" stroke="#c5d2d7" stroke-width="20" stroke-linecap="square"/><line x1="0" y1="39.663247" x2="0" y2="-39.663246" transform="matrix(1 0 0 0.64147 92.801147 74.349309)" fill="none" stroke="#c5d2d7" stroke-width="20" stroke-linecap="square"/><line x1="0" y1="39.663247" x2="0" y2="-39.663246" transform="matrix(1 0 0 0.64147 207.198853 75.180941)" fill="none" stroke="#c5d2d7" stroke-width="20" stroke-linecap="square"/><line x1="0" y1="39.663247" x2="0" y2="-39.663246" transform="matrix(1 0 0 0.64147 92.801147 125.234874)" fill="none" stroke="#c5d2d7" stroke-width="20" stroke-linecap="square"/><line x1="0" y1="39.663247" x2="0" y2="-39.663246" transform="matrix(1 0 0 0.64147 207.198853 125.65069)" fill="none" stroke="#c5d2d7" stroke-width="20" stroke-linecap="square"/><line x1="-28.599427" y1="-0.207908" x2="28.599426" y2="0.207908" transform="translate(121.400574 49.114435)" fill="none" stroke="#c5d2d7" stroke-width="20" stroke-linecap="square"/><line x1="-28.599427" y1="-0.207908" x2="28.599426" y2="0.207908" transform="translate(121.400574 150.469749)" fill="none" stroke="#c5d2d7" stroke-width="20" stroke-linecap="square"/><line x1="-28.599427" y1="-0.207908" x2="28.599426" y2="0.207908" transform="translate(178.599427 49.530251)" fill="none" stroke="#c5d2d7" stroke-width="20" stroke-linecap="square"/><line x1="-28.599427" y1="-0.207908" x2="28.599426" y2="0.207908" transform="translate(178.599427 150.885565)" fill="none" stroke="#c5d2d7" stroke-width="20" stroke-linecap="square"/></svg>
